<svg width="724" height="120" viewBox="0 0 724 120" fill="none" xmlns="http://www.w3.org/2000/svg">
<clipPath id="top"><rect x="0" y="0" width="724" height="120"/></clipPath>
<g clip-path="url(#top)">
<path d="M84.0208 186V53.9952H218.592V86.4464H127.106V104.964H214.926V134.665H127.106V153.549H218.592V186H84.0208Z" fill="#32200D"/>
<path d="M323.08 189.667C270.278 189.667 235.627 162.349 235.627 119.998C235.627 78.1961 270.278 51.0618 323.08 51.0618C371.849 51.0618 406.133 73.4292 409.617 107.347H363.782C361.582 96.1634 345.815 87.1797 323.08 87.1797C297.229 87.1797 280.545 100.38 280.545 119.998C280.545 139.982 297.229 153.365 323.08 153.365C345.815 153.365 361.582 144.382 363.782 132.831H409.617C406.133 167.116 371.849 189.667 323.08 189.667Z" fill="#32200D"/>
<path d="M427.604 186V53.9952H494.89L533.941 136.315L572.81 53.9952H639.912V186H596.827V94.88L553.742 186H513.774L470.689 94.88V186H427.604Z" fill="#32200D"/>
<path d="M0 0H56C56 0 10.5 40 10.5 120C10.5 200 56 240 56 240H0V0Z" fill="#32200D"/>
<path d="M724 0H668C668 0 713.5 40 713.5 120C713.5 200 668 240 668 240H724V0Z" fill="#32200D"/>
</g>
</svg>
