<svg width="724" height="120" viewBox="0 120 724 120" fill="none" xmlns="http://www.w3.org/2000/svg">
<path d="M70.6641 66V30H96.1641V38H80.3141V44.1H95.5141V51.7H80.3141V58H96.1641V66H70.6641Z" fill="#32200D"/>
<path d="M99.4945 66L110.345 30H124.195L135.045 66H124.945L123.095 58.9H111.395L109.545 66H99.4945ZM113.445 51.3H121.095L117.245 36.75L113.445 51.3Z" fill="#32200D"/>
<path d="M138.096 66V30H157.646C164.946 30 169.146 33.8 169.146 40.2C169.146 45 166.646 48.35 162.596 49.6C166.096 50 168.946 52.2 168.946 57V66H159.446V58.05C159.446 55.25 158.546 53.95 156.246 53.95H147.746V66H138.096ZM147.746 46.1H155.096C157.896 46.1 159.296 44.55 159.296 41.95C159.296 39.35 157.896 37.85 155.096 37.85H147.746V46.1Z" fill="#32200D"/>
<path d="M171.861 38.5V30H201.111V38.5H191.361V66H181.661V38.5H171.861Z" fill="#32200D"/>
<path d="M226.893 66V52.3H214.543V66H204.893V30H214.543V43.9H226.893V30H236.593V66H226.893Z" fill="#32200D"/>
<path d="M272.413 66.75C262.063 66.75 255.413 59.65 255.413 48.05C255.413 36.35 262.113 29.35 272.413 29.35C281.913 29.35 288.313 35.35 288.963 45.3H279.163C278.613 40.75 276.313 37.8 272.463 37.8C268.213 37.8 265.363 41.65 265.363 48C265.363 54.5 268.213 58.2 272.463 58.2C276.313 58.2 278.613 55.35 279.163 50.95H288.963C288.363 60.7 281.963 66.75 272.413 66.75Z" fill="#32200D"/>
<path d="M309.627 66.75C298.777 66.75 292.327 59.25 292.327 48C292.327 36.8 298.777 29.35 309.627 29.35C320.427 29.35 326.927 36.8 326.927 48C326.927 59.25 320.427 66.75 309.627 66.75ZM309.627 58.2C314.277 58.2 316.877 54.45 316.877 48C316.877 41.65 314.277 37.8 309.627 37.8C304.977 37.8 302.377 41.65 302.377 48C302.377 54.45 304.977 58.2 309.627 58.2Z" fill="#32200D"/>
<path d="M330.918 66V30H341.768L353.668 52.05V30H362.718V66H351.918L339.968 43.7V66H330.918Z" fill="#32200D"/>
<path d="M382.493 66.75C371.743 66.75 366.293 63.35 365.843 53.9H375.643C375.643 56.9 377.443 59.2 382.743 59.2C386.293 59.2 387.943 58.2 387.943 56.25C387.943 53.9 385.443 53.15 380.193 52C372.543 50.3 366.843 47.35 366.843 40.45C366.843 33.55 372.843 29.35 381.393 29.35C391.143 29.35 396.643 33.95 396.993 42.1H387.343C387.343 38.45 385.343 36.95 381.593 36.95C378.293 36.95 376.743 38 376.743 39.85C376.743 42.25 379.493 42.6 384.893 44.1C392.343 46.15 397.793 48.8 397.793 55.85C397.793 63.45 391.143 66.75 382.493 66.75Z" fill="#32200D"/>
<path d="M399.303 38.5V30H428.553V38.5H418.803V66H409.103V38.5H399.303Z" fill="#32200D"/>
<path d="M432.334 66V30H451.884C459.184 30 463.384 33.8 463.384 40.2C463.384 45 460.884 48.35 456.834 49.6C460.334 50 463.184 52.2 463.184 57V66H453.684V58.05C453.684 55.25 452.784 53.95 450.484 53.95H441.984V66H432.334ZM441.984 46.1H449.334C452.134 46.1 453.534 44.55 453.534 41.95C453.534 39.35 452.134 37.85 449.334 37.85H441.984V46.1Z" fill="#32200D"/>
<path d="M482.594 66.75C471.594 66.75 467.094 60 467.094 48.65V30H476.744V48.25C476.744 54.05 477.794 58.35 482.594 58.35C487.344 58.35 488.394 54.05 488.394 48.25V30H498.094V48.65C498.094 60 493.544 66.75 482.594 66.75Z" fill="#32200D"/>
<path d="M518.898 66.75C508.548 66.75 501.898 59.65 501.898 48.05C501.898 36.35 508.598 29.35 518.898 29.35C528.398 29.35 534.798 35.35 535.448 45.3H525.648C525.098 40.75 522.798 37.8 518.948 37.8C514.698 37.8 511.848 41.65 511.848 48C511.848 54.5 514.698 58.2 518.948 58.2C522.798 58.2 525.098 55.35 525.648 50.95H535.448C534.848 60.7 528.448 66.75 518.898 66.75Z" fill="#32200D"/>
<path d="M537.242 38.5V30H566.492V38.5H556.742V66H547.042V38.5H537.242Z" fill="#32200D"/>
<path d="M570.273 66V30H579.923V66H570.273Z" fill="#32200D"/>
<path d="M601.229 66.75C590.379 66.75 583.929 59.25 583.929 48C583.929 36.8 590.379 29.35 601.229 29.35C612.029 29.35 618.529 36.8 618.529 48C618.529 59.25 612.029 66.75 601.229 66.75ZM601.229 58.2C605.879 58.2 608.479 54.45 608.479 48C608.479 41.65 605.879 37.8 601.229 37.8C596.579 37.8 593.979 41.65 593.979 48C593.979 54.45 596.579 58.2 601.229 58.2Z" fill="#32200D"/>
<path d="M622.52 66V30H633.37L645.27 52.05V30H654.32V66H643.52L631.57 43.7V66H622.52Z" fill="#32200D"/>
<path d="M256.26 114.7C248.16 114.7 243.11 111.25 243.11 104.95C243.11 100.85 246.01 97.85 250.61 95.4C248.11 92.6 246.71 90.1 246.71 87C246.71 81.6 251.16 77.4 258.36 77.4C265.11 77.4 269.26 81.3 269.26 86.4C269.26 90.7 266.26 93.7 261.36 95.8L267.46 101.75C268.31 99.9 268.91 97.7 269.21 94.9H276.46C276.06 99.65 274.66 103.7 272.56 106.75L279.91 114H269.11L267.16 112.05C264.26 113.8 260.61 114.7 256.26 114.7ZM252.51 103.6C252.51 106.2 254.46 107.85 258.16 107.85C259.71 107.85 261.01 107.55 262.16 107.05L254.46 99.35C253.21 100.55 252.51 102.05 252.51 103.6ZM255.31 87.45C255.31 88.9 256.11 90.5 257.71 92.2C260.51 90.75 261.61 89.15 261.61 87.35C261.61 85.6 260.61 83.95 258.61 83.95C256.51 83.95 255.31 85.6 255.31 87.45Z" fill="#32200D"/>
<path d="M297.764 114V78H312.014L318.264 101.3L324.514 78H338.764V114H330.614V87L322.764 114H313.764L305.864 86.95V114H297.764Z" fill="#32200D"/>
<path d="M344.248 114V78H353.898V114H344.248Z" fill="#32200D"/>
<path d="M359.385 114V78H370.235L382.135 100.05V78H391.185V114H380.385L368.435 91.7V114H359.385Z" fill="#32200D"/>
<path d="M396.689 114V78H406.339V114H396.689Z" fill="#32200D"/>
<path d="M411.826 114V78H422.676L434.576 100.05V78H443.626V114H432.826L420.876 91.7V114H411.826Z" fill="#32200D"/>
<path d="M465.75 114.75C455.3 114.75 447.65 107.85 447.65 96.25C447.65 84.5 454.9 77.35 465.5 77.35C475.35 77.35 481.3 83.5 481.8 90.9H471.95C471.5 88 469.35 85.6 465.4 85.6C460.4 85.6 457.4 89.85 457.4 96.1C457.4 103 461.1 106.5 466.7 106.5C468.95 106.5 471.25 105.95 473.1 104.75V100.85H464.9V93.95H481.9V107.1C479 111.5 473.2 114.75 465.75 114.75Z" fill="#32200D"/>
<path d="M0 0H56C56 0 10.5 40 10.5 120C10.5 200 56 240 56 240H0V0Z" fill="#32200D"/>
<path d="M724 0H668C668 0 713.5 40 713.5 120C713.5 200 668 240 668 240H724V0Z" fill="#32200D"/>
</svg>
