<svg width="697" height="720" viewBox="0 0 697 720" fill="none" xmlns="http://www.w3.org/2000/svg">
<path d="M84.0026 186V53.9952H218.574V86.4464H127.088V104.964H214.907V134.665H127.088V153.549H218.574V186H84.0026Z" fill="currentColor"/>
<path d="M231.421 186L245.208 159.599H256.245L269.995 186H260.498L258.225 181.086H243.191L240.918 186H231.421ZM246.051 174.89H255.365L250.708 164.843L246.051 174.89Z" fill="currentColor"/>
<path d="M272.511 186V159.599H293.962C301.185 159.599 304.742 162.386 304.742 167.703C304.742 171.333 302.726 173.753 299.242 174.816C302.689 175 304.742 176.906 304.742 180.17V186H296.125V181.6C296.125 179.216 295.465 178.52 293.119 178.52H281.128V186H272.511ZM281.128 171.773H291.982C294.365 171.773 296.052 171.333 296.052 169.059C296.052 166.749 294.365 166.346 291.982 166.346H281.128V171.773Z" fill="currentColor"/>
<path d="M308.025 166.859V159.599H339.339V166.859H328.009V186H319.392V166.859H308.025Z" fill="currentColor"/>
<path d="M367.331 186V176.393H351.564V186H342.947V159.599H351.564V169.206H367.331V159.599H375.948V186H367.331Z" fill="currentColor"/>
<path d="M278.765 426.733C267.545 426.733 260.321 421.27 260.321 412.799C260.321 404.439 267.582 399.012 278.765 399.012C289.986 399.012 297.246 404.439 297.246 412.799C297.246 421.27 289.986 426.733 278.765 426.733ZM278.765 419.473C284.596 419.473 288.299 416.833 288.299 412.799C288.299 408.839 284.596 406.236 278.765 406.236C272.972 406.236 269.305 408.839 269.305 412.799C269.305 416.833 273.008 419.473 278.765 419.473Z" fill="currentColor"/>
<path d="M300.901 426V399.599H313.368L327.119 417.75V399.599H335.736V426H323.268L309.518 407.813V426H300.901Z" fill="currentColor"/>
<path d="M356.436 426.733C345.839 426.733 339.752 424.24 339.386 417.273H348.37C348.37 419.18 350.35 420.426 356.07 420.426C361.937 420.426 363 419.62 363 418.263C363 416.32 360.323 416.246 354.493 415.88C344.153 415.293 339.826 412.763 339.826 407.116C339.826 401.726 345.583 399.012 354.64 399.012C364.98 399.012 370.517 402.129 370.847 407.996H361.9C361.9 406.016 359.517 405.283 354.566 405.283C349.873 405.283 348.773 406.016 348.773 407.116C348.773 408.839 351.266 409.059 357.06 409.499C366.007 410.159 371.947 411.076 371.947 417.97C371.947 424.607 366.153 426.733 356.436 426.733Z" fill="currentColor"/>
<path d="M373.691 406.859V399.599H405.006V406.859H393.675V426H385.058V406.859H373.691Z" fill="currentColor"/>
<path d="M408.613 426V399.599H430.064C437.288 399.599 440.844 402.386 440.844 407.703C440.844 411.333 438.828 413.753 435.344 414.816C438.791 415 440.844 416.906 440.844 420.17V426H432.227V421.6C432.227 419.216 431.567 418.52 429.221 418.52H417.23V426H408.613ZM417.23 411.773H428.084C430.467 411.773 432.154 411.333 432.154 409.059C432.154 406.749 430.467 406.346 428.084 406.346H417.23V411.773Z" fill="currentColor"/>
<path d="M460.517 426.733C449.224 426.733 444.493 421.966 444.493 413.093V399.599H453.147V412.799C453.147 416.1 454.541 419.473 460.517 419.473C466.458 419.473 467.888 416.063 467.888 412.799V399.599H476.505V413.093C476.505 421.93 471.774 426.733 460.517 426.733Z" fill="currentColor"/>
<path d="M497.677 426.733C487.116 426.733 480.186 421.27 480.186 412.799C480.186 404.439 487.116 399.012 497.677 399.012C507.43 399.012 514.287 403.486 514.984 410.269H505.817C505.377 408.033 502.224 406.236 497.677 406.236C492.507 406.236 489.17 408.876 489.17 412.799C489.17 416.796 492.507 419.473 497.677 419.473C502.224 419.473 505.377 417.676 505.817 415.366H514.984C514.287 422.223 507.43 426.733 497.677 426.733Z" fill="currentColor"/>
<path d="M517.427 406.859V399.599H548.741V406.859H537.411V426H528.794V406.859H517.427Z" fill="currentColor"/>
<path d="M552.349 426V399.599H560.966V426H552.349Z" fill="currentColor"/>
<path d="M583.031 426.733C571.81 426.733 564.587 421.27 564.587 412.799C564.587 404.439 571.847 399.012 583.031 399.012C594.251 399.012 601.512 404.439 601.512 412.799C601.512 421.27 594.251 426.733 583.031 426.733ZM583.031 419.473C588.861 419.473 592.565 416.833 592.565 412.799C592.565 408.839 588.861 406.236 583.031 406.236C577.237 406.236 573.571 408.839 573.571 412.799C573.571 416.833 577.274 419.473 583.031 419.473Z" fill="currentColor"/>
<path d="M605.167 426V399.599H617.634L631.384 417.75V399.599H640.001V426H627.534L613.784 407.813V426H605.167Z" fill="currentColor"/>
<path d="M671.609 426.733C662.882 426.733 658.005 424.093 658.005 419.216C658.005 416.063 660.022 413.936 665.779 412.029C663.139 409.939 662.076 408.216 662.076 406.053C662.076 401.689 666.549 398.939 673.589 398.939C680.043 398.939 684.406 401.542 684.406 405.539C684.406 408.693 681.913 410.783 676.486 412.286L683.636 417.2C684.627 415.806 685.287 414.01 685.653 411.663H693.097C692.73 415.403 691.373 418.52 689.063 420.94L696.434 426H685.763L683.526 424.423C680.373 425.927 676.34 426.733 671.609 426.733ZM666.806 417.97C666.806 420.206 669.189 421.233 673.699 421.233C675.423 421.233 676.89 421.086 678.21 420.756L669.263 414.523C667.686 415.44 666.806 416.613 666.806 417.97ZM670.106 406.603C670.106 407.666 670.839 408.399 672.599 409.609L673.186 410.013C676.229 409.059 677.476 408.033 677.476 406.419C677.476 404.989 676.193 404.109 673.956 404.109C671.536 404.109 670.106 405.063 670.106 406.603Z" fill="currentColor"/>
<path d="M171.456 429.667C118.654 429.667 84.0032 402.349 84.0032 359.998C84.0032 318.196 118.654 291.062 171.456 291.062C220.225 291.062 254.509 313.429 257.993 347.347H212.158C209.958 336.163 194.191 327.18 171.456 327.18C145.605 327.18 128.921 340.38 128.921 359.998C128.921 379.982 145.605 393.365 171.456 393.365C194.191 393.365 209.958 384.382 212.158 372.831H257.993C254.509 407.116 220.225 429.667 171.456 429.667Z" fill="currentColor"/>
<path d="M83.9968 666V533.995H151.283L190.334 616.315L229.202 533.995H296.305V666H253.22V574.88L210.135 666H170.167L127.082 574.88V666H83.9968Z" fill="currentColor"/>
<path d="M308.173 666V639.599H316.79V666H308.173Z" fill="currentColor"/>
<path d="M321.458 666V639.599H333.925L347.675 657.75V639.599H356.292V666H343.825L330.075 647.813V666H321.458Z" fill="currentColor"/>
<path d="M360.99 666V639.599H369.607V666H360.99Z" fill="currentColor"/>
<path d="M374.275 666V639.599H386.742L400.493 657.75V639.599H409.11V666H396.643L382.892 647.813V666H374.275Z" fill="currentColor"/>
<path d="M431.278 666.733C420.058 666.733 412.761 661.343 412.761 652.983C412.761 644.476 419.801 639.012 430.692 639.012C440.665 639.012 447.412 643.193 447.889 649.389H438.722C438.245 647.666 435.202 646.126 430.765 646.126C425.081 646.126 421.745 649.023 421.745 652.983C421.745 657.236 425.448 659.656 431.792 659.656C434.762 659.656 438.062 659.216 440.849 658.08V656.393H430.032V651.259H447.889V662.627C443.819 665.303 437.365 666.733 431.278 666.733Z" fill="currentColor"/>
<path d="M56 0H0V720H56C56 720 10.5 680 10.5 600C10.5 520 56 480 56 480C56 480 10.5 440 10.5 360C10.5 280 56 240 56 240C56 240 10.5 200 10.5 120C10.5 40 56 0 56 0Z" fill="currentColor"/>
</svg>
