<svg width="469" height="240" viewBox="0 0 469 240" fill="none" xmlns="http://www.w3.org/2000/svg">
<path d="M70.5 90V54H96V62H80.15V68.1H95.35V75.7H80.15V82H96V90H70.5Z" fill="#32200D"/>
<path d="M99.3305 90L110.18 54H124.03L134.88 90H124.78L122.93 82.9H111.23L109.38 90H99.3305ZM113.28 75.3H120.93L117.08 60.75L113.28 75.3Z" fill="#32200D"/>
<path d="M137.932 90V54H157.482C164.782 54 168.982 57.8 168.982 64.2C168.982 69 166.482 72.35 162.432 73.6C165.932 74 168.782 76.2 168.782 81V90H159.282V82.05C159.282 79.25 158.382 77.95 156.082 77.95H147.582V90H137.932ZM147.582 70.1H154.932C157.732 70.1 159.132 68.55 159.132 65.95C159.132 63.35 157.732 61.85 154.932 61.85H147.582V70.1Z" fill="#32200D"/>
<path d="M171.697 62.5V54H200.947V62.5H191.197V90H181.497V62.5H171.697Z" fill="#32200D"/>
<path d="M226.729 90V76.3H214.379V90H204.729V54H214.379V67.9H226.729V54H236.429V90H226.729Z" fill="#32200D"/>
<path d="M86.7998 138.75C76.4498 138.75 69.7998 131.65 69.7998 120.05C69.7998 108.35 76.4998 101.35 86.7998 101.35C96.2998 101.35 102.7 107.35 103.35 117.3H93.5498C92.9998 112.75 90.6998 109.8 86.8498 109.8C82.5998 109.8 79.7498 113.65 79.7498 120C79.7498 126.5 82.5998 130.2 86.8498 130.2C90.6998 130.2 92.9998 127.35 93.5498 122.95H103.35C102.75 132.7 96.3498 138.75 86.7998 138.75Z" fill="#32200D"/>
<path d="M124.014 138.75C113.164 138.75 106.714 131.25 106.714 120C106.714 108.8 113.164 101.35 124.014 101.35C134.814 101.35 141.314 108.8 141.314 120C141.314 131.25 134.814 138.75 124.014 138.75ZM124.014 130.2C128.664 130.2 131.264 126.45 131.264 120C131.264 113.65 128.664 109.8 124.014 109.8C119.364 109.8 116.764 113.65 116.764 120C116.764 126.45 119.364 130.2 124.014 130.2Z" fill="#32200D"/>
<path d="M145.304 138V102H156.154L168.054 124.05V102H177.104V138H166.305L154.354 115.7V138H145.304Z" fill="#32200D"/>
<path d="M196.879 138.75C186.129 138.75 180.679 135.35 180.229 125.9H190.029C190.029 128.9 191.829 131.2 197.129 131.2C200.679 131.2 202.329 130.2 202.329 128.25C202.329 125.9 199.829 125.15 194.579 124C186.929 122.3 181.229 119.35 181.229 112.45C181.229 105.55 187.229 101.35 195.779 101.35C205.529 101.35 211.029 105.95 211.379 114.1H201.729C201.729 110.45 199.729 108.95 195.979 108.95C192.679 108.95 191.129 110 191.129 111.85C191.129 114.25 193.879 114.6 199.279 116.1C206.729 118.15 212.179 120.8 212.179 127.85C212.179 135.45 205.529 138.75 196.879 138.75Z" fill="#32200D"/>
<path d="M213.689 110.5V102H242.939V110.5H233.189V138H223.489V110.5H213.689Z" fill="#32200D"/>
<path d="M246.721 138V102H266.271C273.571 102 277.771 105.8 277.771 112.2C277.771 117 275.271 120.35 271.221 121.6C274.721 122 277.57 124.2 277.57 129V138H268.07V130.05C268.07 127.25 267.171 125.95 264.871 125.95H256.371V138H246.721ZM256.371 118.1H263.721C266.521 118.1 267.921 116.55 267.921 113.95C267.921 111.35 266.521 109.85 263.721 109.85H256.371V118.1Z" fill="#32200D"/>
<path d="M296.98 138.75C285.98 138.75 281.48 132 281.48 120.65V102H291.13V120.25C291.13 126.05 292.18 130.35 296.98 130.35C301.73 130.35 302.78 126.05 302.78 120.25V102H312.48V120.65C312.48 132 307.93 138.75 296.98 138.75Z" fill="#32200D"/>
<path d="M333.284 138.75C322.934 138.75 316.284 131.65 316.284 120.05C316.284 108.35 322.984 101.35 333.284 101.35C342.784 101.35 349.184 107.35 349.834 117.3H340.034C339.484 112.75 337.184 109.8 333.334 109.8C329.084 109.8 326.234 113.65 326.234 120C326.234 126.5 329.084 130.2 333.334 130.2C337.184 130.2 339.484 127.35 340.034 122.95H349.834C349.234 132.7 342.834 138.75 333.284 138.75Z" fill="#32200D"/>
<path d="M351.629 110.5V102H380.879V110.5H371.129V138H361.429V110.5H351.629Z" fill="#32200D"/>
<path d="M384.66 138V102H394.31V138H384.66Z" fill="#32200D"/>
<path d="M415.615 138.75C404.765 138.75 398.315 131.25 398.315 120C398.315 108.8 404.765 101.35 415.615 101.35C426.415 101.35 432.915 108.8 432.915 120C432.915 131.25 426.415 138.75 415.615 138.75ZM415.615 130.2C420.265 130.2 422.865 126.45 422.865 120C422.865 113.65 420.265 109.8 415.615 109.8C410.965 109.8 408.365 113.65 408.365 120C408.365 126.45 410.965 130.2 415.615 130.2Z" fill="#32200D"/>
<path d="M436.906 138V102H447.756L459.656 124.05V102H468.706V138H457.906L445.956 115.7V138H436.906Z" fill="#32200D"/>
<path d="M82.9996 186.7C74.8996 186.7 69.8496 183.25 69.8496 176.95C69.8496 172.85 72.7496 169.85 77.3496 167.4C74.8496 164.6 73.4496 162.1 73.4496 159C73.4496 153.6 77.8996 149.4 85.0996 149.4C91.8496 149.4 95.9996 153.3 95.9996 158.4C95.9996 162.7 92.9996 165.7 88.0996 167.8L94.1996 173.75C95.0496 171.9 95.6496 169.7 95.9496 166.9H103.2C102.8 171.65 101.4 175.7 99.2996 178.75L106.65 186H95.8496L93.8996 184.05C90.9996 185.8 87.3496 186.7 82.9996 186.7ZM79.2496 175.6C79.2496 178.2 81.1996 179.85 84.8996 179.85C86.4496 179.85 87.7496 179.55 88.8996 179.05L81.1996 171.35C79.9496 172.55 79.2496 174.05 79.2496 175.6ZM82.0496 159.45C82.0496 160.9 82.8496 162.5 84.4496 164.2C87.2496 162.75 88.3496 161.15 88.3496 159.35C88.3496 157.6 87.3496 155.95 85.3496 155.95C83.2496 155.95 82.0496 157.6 82.0496 159.45Z" fill="#32200D"/>
<path d="M124.504 186V150H138.754L145.004 173.3L151.254 150H165.504V186H157.354V159L149.504 186H140.504L132.604 158.95V186H124.504Z" fill="#32200D"/>
<path d="M170.988 186V150H180.638V186H170.988Z" fill="#32200D"/>
<path d="M186.125 186V150H196.975L208.875 172.05V150H217.925V186H207.125L195.175 163.7V186H186.125Z" fill="#32200D"/>
<path d="M223.429 186V150H233.079V186H223.429Z" fill="#32200D"/>
<path d="M238.566 186V150H249.416L261.316 172.05V150H270.366V186H259.566L247.616 163.7V186H238.566Z" fill="#32200D"/>
<path d="M292.489 186.75C282.039 186.75 274.389 179.85 274.389 168.25C274.389 156.5 281.639 149.35 292.239 149.35C302.089 149.35 308.039 155.5 308.539 162.9H298.689C298.239 160 296.089 157.6 292.139 157.6C287.139 157.6 284.139 161.85 284.139 168.1C284.139 175 287.839 178.5 293.439 178.5C295.689 178.5 297.989 177.95 299.839 176.75V172.85H291.639V165.95H308.639V179.1C305.739 183.5 299.939 186.75 292.489 186.75Z" fill="#32200D"/>
<path d="M0 0H56C56 0 10.5 40 10.5 120C10.5 200 56 240 56 240H0V0Z" fill="#32200D"/>
</svg>
