<svg width="724" height="240" viewBox="0 0 724 240" fill="none" xmlns="http://www.w3.org/2000/svg">
<path d="M279.526 66V30H305.026V38H289.176V44.1H304.376V51.7H289.176V58H305.026V66H279.526Z" fill="#32200D"/>
<path d="M308.357 66L319.207 30H333.057L343.907 66H333.807L331.957 58.9H320.257L318.407 66H308.357ZM322.307 51.3H329.957L326.107 36.75L322.307 51.3Z" fill="#32200D"/>
<path d="M346.958 66V30H366.508C373.808 30 378.008 33.8 378.008 40.2C378.008 45 375.508 48.35 371.458 49.6C374.958 50 377.808 52.2 377.808 57V66H368.308V58.05C368.308 55.25 367.408 53.95 365.108 53.95H356.608V66H346.958ZM356.608 46.1H363.958C366.758 46.1 368.158 44.55 368.158 41.95C368.158 39.35 366.758 37.85 363.958 37.85H356.608V46.1Z" fill="#32200D"/>
<path d="M380.724 38.5V30H409.974V38.5H400.224V66H390.524V38.5H380.724Z" fill="#32200D"/>
<path d="M435.755 66V52.3H423.405V66H413.755V30H423.405V43.9H435.755V30H445.455V66H435.755Z" fill="#32200D"/>
<path d="M179.189 114.75C168.839 114.75 162.189 107.65 162.189 96.05C162.189 84.35 168.889 77.35 179.189 77.35C188.689 77.35 195.089 83.35 195.739 93.3H185.939C185.389 88.75 183.089 85.8 179.239 85.8C174.989 85.8 172.139 89.65 172.139 96C172.139 102.5 174.989 106.2 179.239 106.2C183.089 106.2 185.389 103.35 185.939 98.95H195.739C195.139 108.7 188.739 114.75 179.189 114.75Z" fill="#32200D"/>
<path d="M216.403 114.75C205.553 114.75 199.103 107.25 199.103 96C199.103 84.8 205.553 77.35 216.403 77.35C227.203 77.35 233.703 84.8 233.703 96C233.703 107.25 227.203 114.75 216.403 114.75ZM216.403 106.2C221.053 106.2 223.653 102.45 223.653 96C223.653 89.65 221.053 85.8 216.403 85.8C211.753 85.8 209.153 89.65 209.153 96C209.153 102.45 211.753 106.2 216.403 106.2Z" fill="#32200D"/>
<path d="M237.693 114V78H248.543L260.443 100.05V78H269.493V114H258.693L246.743 91.7V114H237.693Z" fill="#32200D"/>
<path d="M289.268 114.75C278.518 114.75 273.068 111.35 272.618 101.9H282.418C282.418 104.9 284.218 107.2 289.518 107.2C293.068 107.2 294.718 106.2 294.718 104.25C294.718 101.9 292.218 101.15 286.968 100C279.318 98.3 273.618 95.35 273.618 88.45C273.618 81.55 279.618 77.35 288.168 77.35C297.918 77.35 303.418 81.95 303.768 90.1H294.118C294.118 86.45 292.118 84.95 288.368 84.95C285.068 84.95 283.518 86 283.518 87.85C283.518 90.25 286.268 90.6 291.668 92.1C299.118 94.15 304.568 96.8 304.568 103.85C304.568 111.45 297.918 114.75 289.268 114.75Z" fill="#32200D"/>
<path d="M306.078 86.5V78H335.328V86.5H325.578V114H315.878V86.5H306.078Z" fill="#32200D"/>
<path d="M339.109 114V78H358.659C365.959 78 370.159 81.8 370.159 88.2C370.159 93 367.659 96.35 363.609 97.6C367.109 98 369.959 100.2 369.959 105V114H360.459V106.05C360.459 103.25 359.559 101.95 357.259 101.95H348.759V114H339.109ZM348.759 94.1H356.109C358.909 94.1 360.309 92.55 360.309 89.95C360.309 87.35 358.909 85.85 356.109 85.85H348.759V94.1Z" fill="#32200D"/>
<path d="M389.369 114.75C378.369 114.75 373.869 108 373.869 96.65V78H383.519V96.25C383.519 102.05 384.569 106.35 389.369 106.35C394.119 106.35 395.169 102.05 395.169 96.25V78H404.869V96.65C404.869 108 400.319 114.75 389.369 114.75Z" fill="#32200D"/>
<path d="M425.673 114.75C415.323 114.75 408.673 107.65 408.673 96.05C408.673 84.35 415.373 77.35 425.673 77.35C435.173 77.35 441.573 83.35 442.223 93.3H432.423C431.873 88.75 429.573 85.8 425.723 85.8C421.473 85.8 418.623 89.65 418.623 96C418.623 102.5 421.473 106.2 425.723 106.2C429.573 106.2 431.873 103.35 432.423 98.95H442.223C441.623 108.7 435.223 114.75 425.673 114.75Z" fill="#32200D"/>
<path d="M444.018 86.5V78H473.268V86.5H463.518V114H453.818V86.5H444.018Z" fill="#32200D"/>
<path d="M477.049 114V78H486.699V114H477.049Z" fill="#32200D"/>
<path d="M508.004 114.75C497.154 114.75 490.704 107.25 490.704 96C490.704 84.8 497.154 77.35 508.004 77.35C518.804 77.35 525.304 84.8 525.304 96C525.304 107.25 518.804 114.75 508.004 114.75ZM508.004 106.2C512.654 106.2 515.254 102.45 515.254 96C515.254 89.65 512.654 85.8 508.004 85.8C503.354 85.8 500.754 89.65 500.754 96C500.754 102.45 503.354 106.2 508.004 106.2Z" fill="#32200D"/>
<path d="M529.295 114V78H540.145L552.045 100.05V78H561.095V114H550.295L538.345 91.7V114H529.295Z" fill="#32200D"/>
<path d="M256.26 162.7C248.16 162.7 243.11 159.25 243.11 152.95C243.11 148.85 246.01 145.85 250.61 143.4C248.11 140.6 246.71 138.1 246.71 135C246.71 129.6 251.16 125.4 258.36 125.4C265.11 125.4 269.26 129.3 269.26 134.4C269.26 138.7 266.26 141.7 261.36 143.8L267.46 149.75C268.31 147.9 268.91 145.7 269.21 142.9H276.46C276.06 147.65 274.66 151.7 272.56 154.75L279.91 162H269.11L267.16 160.05C264.26 161.8 260.61 162.7 256.26 162.7ZM252.51 151.6C252.51 154.2 254.46 155.85 258.16 155.85C259.71 155.85 261.01 155.55 262.16 155.05L254.46 147.35C253.21 148.55 252.51 150.05 252.51 151.6ZM255.31 135.45C255.31 136.9 256.11 138.5 257.71 140.2C260.51 138.75 261.61 137.15 261.61 135.35C261.61 133.6 260.61 131.95 258.61 131.95C256.51 131.95 255.31 133.6 255.31 135.45Z" fill="#32200D"/>
<path d="M297.764 162V126H312.014L318.264 149.3L324.514 126H338.764V162H330.614V135L322.764 162H313.764L305.864 134.95V162H297.764Z" fill="#32200D"/>
<path d="M344.248 162V126H353.898V162H344.248Z" fill="#32200D"/>
<path d="M359.385 162V126H370.235L382.135 148.05V126H391.185V162H380.385L368.435 139.7V162H359.385Z" fill="#32200D"/>
<path d="M396.689 162V126H406.339V162H396.689Z" fill="#32200D"/>
<path d="M411.826 162V126H422.676L434.576 148.05V126H443.626V162H432.826L420.876 139.7V162H411.826Z" fill="#32200D"/>
<path d="M465.75 162.75C455.3 162.75 447.65 155.85 447.65 144.25C447.65 132.5 454.9 125.35 465.5 125.35C475.35 125.35 481.3 131.5 481.8 138.9H471.95C471.5 136 469.35 133.6 465.4 133.6C460.4 133.6 457.4 137.85 457.4 144.1C457.4 151 461.1 154.5 466.7 154.5C468.95 154.5 471.25 153.95 473.1 152.75V148.85H464.9V141.95H481.9V155.1C479 159.5 473.2 162.75 465.75 162.75Z" fill="#32200D"/>
<path d="M0 0H56C56 0 10.5 40 10.5 120C10.5 200 56 240 56 240H0V0Z" fill="#32200D"/>
<path d="M724 0H668C668 0 713.5 40 713.5 120C713.5 200 668 240 668 240H724V0Z" fill="#32200D"/>
</svg>
